<svg width="16" height="16" viewBox="0 0 16 16" fill="none" xmlns="http://www.w3.org/2000/svg">
<path d="M16 8C16 9.05058 15.7931 10.0909 15.391 11.0615C14.989 12.0321 14.3997 12.914 13.6569 13.6569C12.914 14.3997 12.0321 14.989 11.0615 15.391C10.0909 15.7931 9.05057 16 8 16C6.94942 16 5.90914 15.7931 4.93853 15.391C3.96793 14.989 3.08601 14.3997 2.34315 13.6569C1.60028 12.914 1.011 12.0321 0.608963 11.0615C0.206926 10.0909 -9.18442e-08 9.05057 0 8L8 8H16Z" fill="black"/>
<path d="M-1.20797e-06 8C-1.11612e-06 6.94942 0.206925 5.90914 0.608963 4.93853C1.011 3.96793 1.60028 3.08601 2.34315 2.34315C3.08601 1.60028 3.96793 1.011 4.93853 0.608964C5.90914 0.206926 6.94943 1.62448e-07 8 2.54292e-07C9.05058 3.46136e-07 10.0909 0.206927 11.0615 0.608964C12.0321 1.011 12.914 1.60028 13.6569 2.34315C14.3997 3.08602 14.989 3.96793 15.391 4.93853C15.7931 5.90914 16 6.94943 16 8L8 8L-1.20797e-06 8Z" fill="white"/>
</svg>
